<?xml version="1.0" encoding="utf-8"?>
<!-- Generator: Adobe Illustrator 21.0.0, SVG Export Plug-In . SVG Version: 6.00 Build 0)  -->
<svg version="1.1" id="Layer_1" xmlns="http://www.w3.org/2000/svg" xmlns:xlink="http://www.w3.org/1999/xlink" x="0px" y="0px"
	 viewBox="0 0 512 512" style="enable-background:new 0 0 512 512;" xml:space="preserve">
<style type="text/css">
	.st0{fill:#FCCE3D;}
</style>
<g>
	<g>
		<g>
			<path class="st0" d="M312.4,256L503.8,64.6c5.3-5.3,8.2-12.3,8.2-19.8s-2.9-14.5-8.2-19.8L487,8.2C481.8,2.9,474.7,0,467.2,0
				s-14.5,2.9-19.8,8.2L256,199.6L64.6,8.2C59.3,2.9,52.3,0,44.8,0S30.2,2.9,25,8.2L8.2,25c-10.9,10.9-10.9,28.7,0,39.6L199.6,256
				L8.2,447.4C2.9,452.7,0,459.7,0,467.2s2.9,14.5,8.2,19.8L25,503.8c5.3,5.3,12.3,8.2,19.8,8.2s14.5-2.9,19.8-8.2L256,312.4
				l191.4,191.4c5.3,5.3,12.3,8.2,19.8,8.2l0,0c7.5,0,14.5-2.9,19.8-8.2l16.8-16.8c5.3-5.3,8.2-12.3,8.2-19.8s-2.9-14.5-8.2-19.8
				L312.4,256z"/>
		</g>
	</g>
</g>
</svg>
